<?xml version="1.0" standalone="no"?>
<!DOCTYPE svg PUBLIC "-//W3C//DTD SVG 20010904//EN"
 "http://www.w3.org/TR/2001/REC-SVG-20010904/DTD/svg10.dtd">
<svg version="1.0" xmlns="http://www.w3.org/2000/svg"
 width="114.000000pt" height="527.000000pt" viewBox="0 0 114.000000 527.000000"
 preserveAspectRatio="xMidYMid meet">
<metadata>
Created by potrace 1.13, written by Peter Selinger 2001-2015
</metadata>
<g transform="translate(0.000000,527.000000) scale(0.100000,-0.100000)"
fill="#000000" stroke="none">
<path d="M145 5230 c-33 -16 -77 -29 -97 -30 l-38 0 0 -75 c0 -73 1 -75 25
-75 14 0 25 5 25 10 0 6 -7 10 -15 10 -12 0 -15 13 -15 55 l0 55 34 0 c18 0
59 11 90 25 l56 25 0 -105 0 -105 -50 20 c-56 22 -70 24 -70 12 0 -8 116 -62
133 -62 4 0 7 61 7 135 0 102 -3 135 -12 134 -7 0 -40 -14 -73 -29z"/>
<path d="M791 5164 c-56 -53 -101 -102 -101 -109 0 -35 35 -21 110 45 43 39
82 75 85 80 13 22 40 7 121 -67 83 -77 116 -93 122 -63 4 22 -190 210 -216
210 -12 0 -61 -39 -121 -96z"/>
<path d="M822 5082 l-73 -67 1 -97 0 -98 55 0 55 0 0 48 c0 54 12 72 50 72 38
0 50 -18 50 -73 l0 -48 53 3 52 3 3 96 3 96 -75 66 c-41 37 -80 67 -87 67 -8
-1 -47 -31 -87 -68z"/>
<path d="M93 4580 c-55 -33 -77 -99 -51 -155 10 -21 8 -32 -11 -65 l-22 -40
25 0 c14 0 31 -9 40 -21 15 -22 15 -22 32 14 14 28 23 36 51 39 32 4 36 1 55
-35 19 -39 20 -39 34 -18 9 12 26 21 41 21 l25 0 -25 43 c-23 39 -24 47 -14
85 9 34 8 47 -6 77 -33 68 -112 93 -174 55z m138 -29 c66 -66 18 -181 -76
-181 -61 0 -104 45 -105 108 0 63 40 102 105 102 38 0 52 -5 76 -29z"/>
</g>
</svg>
